<svg width="184" height="131" viewBox="0 0 184 131" fill="none" xmlns="http://www.w3.org/2000/svg">
<g id="Logo">
<path id="Vector" d="M13.6321 118.027C13.6321 113.745 10.1937 110.267 5.95983 110.267H0V130.914H3.4114V125.786H5.95983C6.64751 125.773 7.33518 125.663 7.99589 125.459L10.4769 130.914H14.2254L11.0028 123.822C12.6613 122.363 13.6186 120.25 13.6321 118.027ZM5.95983 122.336H3.4114V113.718H5.95983C8.3195 113.718 10.2207 115.64 10.2207 118.027C10.2207 120.413 8.3195 122.336 5.95983 122.336Z" fill="white"/>
<path id="Vector_2" d="M75.5376 130.955H89.1697V127.504H78.949V122.336H87.4573V118.886H78.949V113.718H89.1697V110.267H75.5376V130.955Z" fill="white"/>
<path id="Vector_3" d="M105.633 110.268H100.522V130.914H105.633C111.283 130.71 115.692 125.909 115.489 120.196C115.301 114.768 110.999 110.418 105.633 110.227V110.268ZM105.633 127.505H103.92V113.718H105.633C109.395 113.882 112.307 117.114 112.145 120.918C111.984 124.491 109.166 127.341 105.633 127.505Z" fill="white"/>
<path id="Vector_4" d="M50.5493 110.267V130.955H53.9607V122.336H62.4825V118.886H53.9607V113.718H64.1814V110.267H50.5493Z" fill="white"/>
<path id="Vector_5" d="M32.361 110.267C28.626 110.308 25.6191 113.39 25.6191 117.168V130.914H29.0171V125.786H35.8399V130.914H39.2378V117.168C39.2378 113.363 36.177 110.267 32.415 110.267C32.4015 110.267 32.3745 110.267 32.361 110.267ZM35.7724 122.336H28.9766V117.168C28.9766 115.258 30.5003 113.718 32.388 113.718C34.2757 113.718 35.7994 115.258 35.7994 117.168L35.7724 122.336Z" fill="white"/>
<path id="Vector_6" d="M98.8101 20.6735C104.46 20.6735 109.031 16.0506 109.031 10.3368C109.031 4.62293 104.46 3.05176e-05 98.8101 3.05176e-05C93.1604 3.05176e-05 88.5894 4.62293 88.5894 10.3368C88.5894 16.0506 93.1604 20.6735 98.8101 20.6735ZM98.8101 6.88665C100.698 6.88665 102.221 8.41397 102.235 10.3231C102.248 12.2323 100.725 13.7733 98.837 13.7869C96.9493 13.8005 95.4256 12.2596 95.4122 10.3504C95.4122 8.45489 96.9358 6.91392 98.8101 6.90028V6.88665Z" fill="white"/>
<path id="Vector_7" d="M149.913 3.05176e-05H143.104V96.4945H149.913V3.05176e-05Z" fill="white"/>
<path id="Vector_8" d="M136.295 3.05176e-05H129.486V96.4945H136.295V3.05176e-05Z" fill="white"/>
<path id="Vector_9" d="M170.368 99.9312V27.574H163.626V99.9312C163.626 105.645 159.055 110.268 153.406 110.268C153.406 110.268 153.406 110.268 153.392 110.268H143.171V117.168H153.392C162.777 117.127 170.368 109.422 170.368 99.9312Z" fill="white"/>
<path id="Vector_10" d="M177.177 27.574V99.9312C177.204 113.254 166.538 124.068 153.365 124.096C153.351 124.096 153.338 124.096 153.324 124.096H143.104V130.914H153.324C170.26 130.914 184 117.018 184 99.8903V27.574H177.177Z" fill="white"/>
<path id="Vector_11" d="M68.1471 62.0344C68.1471 46.802 80.3499 34.4606 95.4113 34.4606H109.03V75.8076H102.288V41.3472H95.5461C84.2467 41.0472 74.862 50.0748 74.5788 61.5025C74.2822 72.9302 83.2085 82.4215 94.5079 82.7078C94.8585 82.7078 95.209 82.7078 95.5596 82.7078H115.866V27.574H95.4248C76.6014 27.574 61.3378 43.0246 61.3512 62.0616C61.3512 66.7936 62.3221 71.4711 64.1828 75.8076H47.7191V62.0344C47.7191 42.9973 32.469 27.574 13.6456 27.574H0V34.4606H13.6321C28.68 34.4606 40.8828 46.802 40.8828 62.0207C40.8828 62.0207 40.8828 62.0207 40.8828 62.0344V75.8076H34.0735V62.0344C34.0735 50.6203 24.918 41.3609 13.6321 41.3472H0V48.2475H13.6321C21.1561 48.2475 27.2642 54.425 27.2642 62.0344V75.8076H0V82.7078H68.1471C70.0887 85.3125 72.381 87.6307 74.9564 89.5945H0V96.4947H115.853V89.5945H95.4113C80.3634 89.5945 68.1606 77.2667 68.1471 62.048C68.1471 62.048 68.1471 62.048 68.1471 62.0344ZM95.4113 75.8076C87.8873 76.0531 81.5904 70.0665 81.3612 62.4571C81.132 54.8477 87.0379 48.4793 94.5618 48.2475C94.845 48.2475 95.1281 48.2475 95.4248 48.2475V75.8076H95.4113Z" fill="white"/>
</g>
</svg>
